<svg xmlns="http://www.w3.org/2000/svg" viewBox="0 0 512 512">
  <defs>
    <linearGradient id="bgGradient" x1="0%" y1="0%" x2="100%" y2="100%">
      <stop offset="0%" stop-color="#FDF2F8" />
      <stop offset="40%" stop-color="#FCE7F3" />
      <stop offset="100%" stop-color="#FBCFE8" />
    </linearGradient>
    <filter id="softShadow" x="-20%" y="-20%" width="140%" height="140%">
      <feDropShadow dx="0" dy="12" stdDeviation="16" flood-color="#EC4899" flood-opacity="0.15" />
    </filter>
  </defs>

  <rect width="512" height="512" rx="120" fill="url(#bgGradient)" />

  <rect x="136" y="136" width="240" height="240" rx="32" fill="#FFFFFF" filter="url(#softShadow)" />

  <rect x="116" y="180" width="40" height="14" rx="7" fill="#F9A8D4" />
  <rect x="116" y="249" width="40" height="14" rx="7" fill="#F9A8D4" />
  <rect x="116" y="318" width="40" height="14" rx="7" fill="#F9A8D4" />

  <path d="M 200 260 L 245 305 L 330 200" fill="none" stroke="#6EE7B7" stroke-width="24" stroke-linecap="round" stroke-linejoin="round" />

  <path d="M 370 100 Q 370 145 415 145 Q 370 145 370 190 Q 370 145 325 145 Q 370 145 370 100 Z" fill="#FFFFFF" filter="url(#softShadow)" />

  <path d="M 110 380 Q 110 400 130 400 Q 110 400 110 420 Q 110 400 90 400 Q 110 400 110 380 Z" fill="#FFFFFF" />
</svg>
