<svg xmlns="http://www.w3.org/2000/svg" viewBox="0 0 120 120" width="100%" height="100%">
  <rect x="5" y="5" width="110" height="110" rx="25" fill="#FFB6C1" />

  <circle cx="60" cy="60" r="45" fill="none" stroke="#FFFFFF" stroke-width="2" stroke-dasharray="4 4" />

  <rect x="28" y="38" width="64" height="44" rx="4" fill="#D6809A" />
  
  <rect x="30" y="40" width="28" height="40" rx="2" fill="#FFFFFF" />
  
  <path d="M 34 48 L 54 48 M 34 54 L 54 54 M 34 60 L 54 60 M 34 66 L 54 66 M 38 44 L 38 70 M 44 44 L 44 70 M 50 44 L 50 70" stroke="#FFD1DC" stroke-width="1" />
  <rect x="34" y="44" width="20" height="4" fill="#FFD1DC" />

  <rect x="62" y="40" width="28" height="40" rx="2" fill="#FFFFFF" />
  
  <circle cx="68" cy="48" r="2.5" fill="#77DD77" />
  <line x1="73" y1="48" x2="86" y2="48" stroke="#E0E0E0" stroke-width="2" stroke-linecap="round" />
  
  <circle cx="68" cy="56" r="2.5" fill="#77DD77" />
  <line x1="73" y1="56" x2="84" y2="56" stroke="#E0E0E0" stroke-width="2" stroke-linecap="round" />
  
  <circle cx="68" cy="64" r="2.5" fill="#77DD77" />
  <line x1="73" y1="64" x2="80" y2="64" stroke="#E0E0E0" stroke-width="2" stroke-linecap="round" />

  <rect x="58" y="44" width="4" height="2" rx="1" fill="#A9A9A9" />
  <rect x="58" y="52" width="4" height="2" rx="1" fill="#A9A9A9" />
  <rect x="58" y="60" width="4" height="2" rx="1" fill="#A9A9A9" />
  <rect x="58" y="68" width="4" height="2" rx="1" fill="#A9A9A9" />

  <g transform="translate(85, 85) rotate(-45)">
    <rect x="-4" y="-12" width="8" height="20" fill="#FFD700" />
    <polygon points="-4,-12 4,-12 0,-18" fill="#F4A460" />
    <polygon points="-1,-16.5 1,-16.5 0,-18" fill="#555" />
    <rect x="-4" y="8" width="8" height="4" fill="#FF69B4" />
    <line x1="-4" y1="8" x2="4" y2="8" stroke="#A9A9A9" stroke-width="1" />
  </g>

  <g transform="translate(85, 25)">
    <path d="M -8 5 C -12 5 -12 0 -8 -2 C -8 -6 -2 -8 2 -5 C 6 -8 10 -4 8 0 C 12 0 12 5 8 5 Z" fill="#FFFFFF" />
    <polygon points="4,-6 5,-3 8,-3 6,-1 7,2 4,0 1,2 2,-1 0,-3 3,-3" fill="#FFD700" />
  </g>

  <g transform="translate(30, 25) rotate(35)">
    <rect x="-10" y="-4" width="20" height="8" rx="2" fill="#FFFACD" />
    <rect x="-11" y="-5" width="3" height="10" rx="1" fill="#F4A460" />
    <rect x="8" y="-5" width="3" height="10" rx="1" fill="#F4A460" />
    <path d="M -2 0 L 2 0 L 4 5 L -4 5 Z" fill="#FF69B4" />
  </g>

  <g transform="translate(60, 95)">
    <rect x="-8" y="-6" width="16" height="12" rx="1" fill="#FFF" />
    <line x1="0" y1="-6" x2="0" y2="6" stroke="#D6809A" stroke-width="1" />
    <line x1="-6" y1="-3" x2="-2" y2="-3" stroke="#E0E0E0" stroke-width="1" />
    <line x1="-6" y1="0" x2="-2" y2="0" stroke="#E0E0E0" stroke-width="1" />
    <circle cx="4" cy="-1" r="2" fill="#FFD700" />
    <line x1="4" y1="1" x2="4" y2="3" stroke="#555" stroke-width="1" />
  </g>
</svg>
